<svg xmlns="http://www.w3.org/2000/svg" width="720" height="1280" viewBox="0 0 720 1280" role="img" aria-labelledby="title desc">
  <title id="title">UltraAce free spins promotion</title>
  <desc id="desc">Promotional side banner for free spins and prize events.</desc>
  <defs>
    <linearGradient id="bg" x1="0" x2="1" y1="0" y2="1">
      <stop offset="0" stop-color="#061b20"/>
      <stop offset="0.48" stop-color="#0a4b5a"/>
      <stop offset="1" stop-color="#020709"/>
    </linearGradient>
    <radialGradient id="burst" cx="50%" cy="38%" r="62%">
      <stop offset="0" stop-color="#eaffff" stop-opacity="0.9"/>
      <stop offset="0.28" stop-color="#3ee8ff" stop-opacity="0.42"/>
      <stop offset="1" stop-color="#0089ff" stop-opacity="0"/>
    </radialGradient>
    <filter id="shadow" x="-30%" y="-30%" width="160%" height="160%">
      <feDropShadow dx="0" dy="12" stdDeviation="12" flood-color="#000" flood-opacity="0.55"/>
    </filter>
  </defs>
  <rect width="720" height="1280" fill="url(#bg)"/>
  <rect width="720" height="1280" fill="url(#burst)"/>
  <path d="M54 58h612v1164H54z" fill="none" stroke="#84efff" stroke-width="6" opacity="0.72"/>
  <path d="M74 78h572v1124H74z" fill="none" stroke="#ffffff" stroke-width="2" opacity="0.34"/>
  <g filter="url(#shadow)">
    <text x="360" y="178" text-anchor="middle" font-family="Impact, Arial Black, sans-serif" font-size="82" fill="#ffffff">PLAY MORE</text>
    <text x="360" y="270" text-anchor="middle" font-family="Impact, Arial Black, sans-serif" font-size="82" fill="#6cf3ff">WIN MORE</text>
  </g>
  <g transform="translate(360 505)" filter="url(#shadow)">
    <rect x="-190" y="-140" width="380" height="280" rx="28" fill="#f6f8ff"/>
    <path d="M-190-95h380v-18c0-15-13-27-28-27h-324c-15 0-28 12-28 27z" fill="#ffe071"/>
    <text x="-128" y="-42" font-family="Georgia, serif" font-size="72" font-weight="900" fill="#1f2c3a">A</text>
    <path d="M0-44c48 52 96 108 0 172-96-64-48-120 0-172z" fill="#101722"/>
    <text x="128" y="94" font-family="Georgia, serif" font-size="72" font-weight="900" fill="#1f2c3a">K</text>
  </g>
  <text x="360" y="750" text-anchor="middle" font-family="Impact, Arial Black, sans-serif" font-size="86" fill="#fff8c9" filter="url(#shadow)">FREE SPINS</text>
  <text x="360" y="832" text-anchor="middle" font-family="Arial, sans-serif" font-size="42" font-weight="900" fill="#ffffff">SPECIAL EVENTS</text>
  <text x="360" y="892" text-anchor="middle" font-family="Arial, sans-serif" font-size="42" font-weight="900" fill="#ffffff">RUNNING DAILY</text>
  <rect x="100" y="1000" width="520" height="94" rx="10" fill="#061015" stroke="#84efff" stroke-width="4"/>
  <text x="360" y="1062" text-anchor="middle" font-family="Arial, sans-serif" font-size="36" font-weight="900" fill="#abf8ff">CHECK THE MARQUEE</text>
  <text x="360" y="1165" text-anchor="middle" font-family="Arial, sans-serif" font-size="24" fill="#c8f8ff" opacity="0.9">Demo promotional material</text>
</svg>
