<svg xmlns="http://www.w3.org/2000/svg" width="512" height="512" viewBox="0 0 512 512">
<title>Sombrero symbol</title>
<defs>
  <filter id="shadow" x="-20%" y="-20%" width="140%" height="140%">
    <feDropShadow dx="0" dy="10" stdDeviation="10" flood-color="#000" flood-opacity=".42"/>
  </filter>
  <linearGradient id="gold" x1="0" y1="0" x2="1" y2="1">
    <stop offset="0" stop-color="#fff0a6"/><stop offset=".45" stop-color="#ffc53d"/><stop offset="1" stop-color="#b86b00"/>
  </linearGradient>
  <linearGradient id="redgrad" x1="0" y1="0" x2="1" y2="1">
    <stop offset="0" stop-color="#ff796d"/><stop offset="1" stop-color="#c61f38"/>
  </linearGradient>
</defs>

<g transform="translate(256 256) scale(1.48) translate(-256 -256)">
<g filter="url(#shadow)">
<ellipse cx="256" cy="300" rx="170" ry="52" fill="#e7a92a" stroke="#66300f" stroke-width="10"/>
<path d="M173 282c28-88 138-120 166 0z" fill="#f3c44f" stroke="#66300f" stroke-width="10"/>
<path d="M110 290c56 44 238 55 292 0" fill="none" stroke="#22c76f" stroke-width="13"/>
<path d="M170 297l22-28 22 28 22-28 22 28 22-28 22 28 22-28 22 28" fill="none" stroke="#e7334c" stroke-width="11" stroke-linejoin="round"/>
<path d="M214 225h84" stroke="#ffef99" stroke-width="16" stroke-linecap="round"/>
</g>
</g>
</svg>