<svg xmlns="http://www.w3.org/2000/svg" width="512" height="512" viewBox="0 0 512 512">
<title>Skull symbol</title>
<defs>
  <filter id="shadow" x="-20%" y="-20%" width="140%" height="140%">
    <feDropShadow dx="0" dy="10" stdDeviation="10" flood-color="#000" flood-opacity=".42"/>
  </filter>
  <linearGradient id="gold" x1="0" y1="0" x2="1" y2="1">
    <stop offset="0" stop-color="#fff0a6"/><stop offset=".45" stop-color="#ffc53d"/><stop offset="1" stop-color="#b86b00"/>
  </linearGradient>
  <linearGradient id="redgrad" x1="0" y1="0" x2="1" y2="1">
    <stop offset="0" stop-color="#ff796d"/><stop offset="1" stop-color="#c61f38"/>
  </linearGradient>
</defs>

<g transform="translate(256 256) scale(1.48) translate(-256 -256)">
<g filter="url(#shadow)">
<path d="M155 198c0-82 202-82 202 0 0 46-21 67-47 82v44c0 23-108 23-108 0v-44c-26-15-47-36-47-82z" fill="#f6ead1" stroke="#482225" stroke-width="10"/>
<circle cx="210" cy="207" r="35" fill="#24122e"/><circle cx="302" cy="207" r="35" fill="#24122e"/>
<circle cx="210" cy="207" r="15" fill="#ff466f"/><circle cx="302" cy="207" r="15" fill="#26d7ff"/>
<path d="M256 238l-22 38h44z" fill="#5b2c35"/>
<path d="M205 304c36 26 66 26 102 0" fill="none" stroke="#7c3337" stroke-width="10" stroke-linecap="round"/>
<path d="M218 318v26M246 325v28M274 325v28M302 318v26" stroke="#7c3337" stroke-width="7" stroke-linecap="round"/>
<path d="M180 156c30-54 122-66 154-6" fill="none" stroke="#ff4bd2" stroke-width="12" stroke-linecap="round"/>
<path d="M177 165l-24-26M335 165l24-26" stroke="#39dd75" stroke-width="10" stroke-linecap="round"/>
<circle cx="256" cy="151" r="18" fill="#ffcb28"/>
</g>
</g>
</svg>