<svg xmlns="http://www.w3.org/2000/svg" width="512" height="512" viewBox="0 0 512 512">
<title>Gold multiplier frame</title>
<defs>
  <filter id="shadow" x="-20%" y="-20%" width="140%" height="140%">
    <feDropShadow dx="0" dy="10" stdDeviation="10" flood-color="#000" flood-opacity=".42"/>
  </filter>
  <linearGradient id="gold" x1="0" y1="0" x2="1" y2="1">
    <stop offset="0" stop-color="#fff0a6"/><stop offset=".45" stop-color="#ffc53d"/><stop offset="1" stop-color="#b86b00"/>
  </linearGradient>
  <linearGradient id="redgrad" x1="0" y1="0" x2="1" y2="1">
    <stop offset="0" stop-color="#ff796d"/><stop offset="1" stop-color="#c61f38"/>
  </linearGradient>
</defs>

<rect x="58" y="58" width="396" height="396" rx="52" fill="none" stroke="#5a2b78" stroke-width="12" filter="url(#shadow)"/>
<rect x="79" y="79" width="354" height="354" rx="38" fill="none" stroke="url(#gold)" stroke-width="18"/>
<rect x="102" y="102" width="308" height="308" rx="26" fill="none" stroke="#ff4bd2" stroke-width="8" stroke-dasharray="22 16"/>
<path d="M104 92h88l-24 34H98zM320 92h88l6 34h-70zM104 420h88l-24-34H98zM320 420h88l6-34h-70z" fill="#19c7ff" opacity=".8"/>
<g transform="translate(300 330)">
  <circle cx="68" cy="56" r="54" fill="#7a28d7" stroke="url(#gold)" stroke-width="12"/>
  <text x="68" y="72" text-anchor="middle" font-family="Arial Black, Arial" font-size="44" fill="#fff3a6">x2</text>
</g>

</svg>