<svg xmlns="http://www.w3.org/2000/svg" width="512" height="512" viewBox="0 0 512 512">
<title>Chilli pepper symbol</title>
<defs>
  <filter id="shadow" x="-20%" y="-20%" width="140%" height="140%">
    <feDropShadow dx="0" dy="10" stdDeviation="10" flood-color="#000" flood-opacity=".42"/>
  </filter>
  <linearGradient id="gold" x1="0" y1="0" x2="1" y2="1">
    <stop offset="0" stop-color="#fff0a6"/><stop offset=".45" stop-color="#ffc53d"/><stop offset="1" stop-color="#b86b00"/>
  </linearGradient>
  <linearGradient id="redgrad" x1="0" y1="0" x2="1" y2="1">
    <stop offset="0" stop-color="#ff796d"/><stop offset="1" stop-color="#c61f38"/>
  </linearGradient>
</defs>

<g transform="translate(256 256) scale(1.48) translate(-256 -256)">
<g filter="url(#shadow)">
<path d="M150 306c76 30 179-4 215-94 17 130-113 199-221 124-21-15-14-38 6-30z" fill="url(#redgrad)" stroke="#611c24" stroke-width="10"/>
<path d="M336 201c6-47 41-56 68-33-35-2-50 14-56 48z" fill="#34ba5b" stroke="#14572a" stroke-width="8"/>
<path d="M184 322c60 10 112-17 151-72" fill="none" stroke="#ff9b72" stroke-width="12" opacity=".55"/>
</g>
</g>
</svg>