<svg xmlns="http://www.w3.org/2000/svg" width="512" height="512" viewBox="0 0 512 512">
<title>Maracas symbol</title>
<defs>
  <filter id="shadow" x="-20%" y="-20%" width="140%" height="140%">
    <feDropShadow dx="0" dy="10" stdDeviation="10" flood-color="#000" flood-opacity=".42"/>
  </filter>
  <linearGradient id="gold" x1="0" y1="0" x2="1" y2="1">
    <stop offset="0" stop-color="#fff0a6"/><stop offset=".45" stop-color="#ffc53d"/><stop offset="1" stop-color="#b86b00"/>
  </linearGradient>
  <linearGradient id="redgrad" x1="0" y1="0" x2="1" y2="1">
    <stop offset="0" stop-color="#ff796d"/><stop offset="1" stop-color="#c61f38"/>
  </linearGradient>
</defs>

<g transform="translate(256 256) scale(1.48) translate(-256 -256)">
<g filter="url(#shadow)" transform="rotate(-24 256 256)">
<path d="M197 282l-48 114" stroke="#9b5a23" stroke-width="30" stroke-linecap="round"/>
<ellipse cx="220" cy="210" rx="56" ry="78" fill="#f3b43c" stroke="#67320f" stroke-width="9"/>
<path d="M173 197c35 16 68 16 100 0M174 228c36-13 70-13 100 0" stroke="#df263d" stroke-width="11" fill="none"/>
<path d="M188 162l22 30 22-30 22 30" stroke="#2fc56d" stroke-width="10" fill="none"/>
</g>
<g filter="url(#shadow)" transform="rotate(24 256 256)">
<path d="M315 282l48 114" stroke="#9b5a23" stroke-width="30" stroke-linecap="round"/>
<ellipse cx="292" cy="210" rx="56" ry="78" fill="#ffcf48" stroke="#67320f" stroke-width="9"/>
<path d="M245 197c35 16 68 16 100 0M246 228c36-13 70-13 100 0" stroke="#df263d" stroke-width="11" fill="none"/>
<path d="M260 162l22 30 22-30 22 30" stroke="#2fc56d" stroke-width="10" fill="none"/>
</g>
</g>
</svg>